<svg viewBox="0 0 50 50" fill="none" xmlns="http://www.w3.org/2000/svg">
  <path
    d="M17.5 37.9167C18.2917 38.9583 18.75 40.25 18.75 41.6667C18.75 45.125 15.9583 47.9167 12.5 47.9167C9.04167 47.9167 6.25 45.125 6.25 41.6667C6.25 38.2083 9.04167 35.4167 12.5 35.4167C13.4167 35.4167 14.2708 35.6042 15.0625 35.9583L18 32.2708C17.0767 31.237 16.3942 30.0113 16.0015 28.682C15.6089 27.3527 15.5158 25.9529 15.7292 24.5833L11.5 23.1667C10.7713 24.3032 9.69394 25.1729 8.4293 25.6455C7.16466 26.1181 5.78092 26.168 4.4855 25.7878C3.19008 25.4077 2.05279 24.6179 1.2441 23.5368C0.43541 22.4558 -0.00110059 21.1417 2.08399e-06 19.7917C2.08399e-06 16.3333 2.79167 13.5417 6.25 13.5417C9.70833 13.5417 12.5 16.3333 12.5 19.7917C12.5 19.9375 12.5 20.0833 12.4792 20.2292L16.7083 21.6458C17.3788 20.378 18.3331 19.2822 19.4967 18.4438C20.6603 17.6055 22.0018 17.0472 23.4167 16.8125V12.3125C22.0807 11.9553 20.8995 11.1679 20.056 10.0721C19.2124 8.97619 18.7535 7.63293 18.75 6.25C18.75 2.79167 21.5417 0 25 0C28.4583 0 31.25 2.79167 31.25 6.25C31.25 9.16667 29.25 11.6042 26.5625 12.3125V16.8125C29.4792 17.2917 31.9375 19.125 33.2708 21.6458L37.5 20.2292V19.7917C37.5 16.3333 40.2917 13.5417 43.75 13.5417C47.2083 13.5417 50 16.3333 50 19.7917C50 23.25 47.2083 26.0417 43.75 26.0417C41.5417 26.0417 39.625 24.8958 38.5 23.1875L34.2708 24.6042C34.4856 25.9737 34.3933 27.374 34.0006 28.7035C33.6079 30.033 32.9245 31.2586 32 32.2917L34.9375 35.9792C35.7292 35.6042 36.5833 35.4167 37.5 35.4167C40.9583 35.4167 43.75 38.2083 43.75 41.6667C43.75 45.125 40.9583 47.9167 37.5 47.9167C34.0417 47.9167 31.25 45.125 31.25 41.6667C31.25 40.25 31.7083 38.9583 32.5 37.9167L29.5625 34.2292C26.75 35.7917 23.2917 35.8125 20.4583 34.2292L17.5 37.9167Z"
    fill="#FF8080"
  />
</svg>
